<?xml version="1.0" standalone="yes"?>
<svg xmlns="http://www.w3.org/2000/svg" width="64" height="42">
<path style="fill:#f2e1e4; stroke:none;" d="M0 0L1 3L2 3L2 0L0 0z"/>
<path style="fill:#c0c2db; stroke:none;" d="M2.66667 0.333332L3.33333 0.666668L2.66667 0.333332z"/>
<path style="fill:#444a9d; stroke:none;" d="M4 0L4 1L13 6L13 0L4 0z"/>
<path style="fill:#c0c2db; stroke:none;" d="M13 0L11 5L11 6L13 7L13 0z"/>
<path style="fill:#ec96a1; stroke:none;" d="M14 0L14 9L15 9L14 0z"/>
<path style="fill:#fe5b64; stroke:none;" d="M15 0L15 9L0 9L0 12L15 12L15 21L17 21L17 12L32 12L32 9L17 9L17 0L15 0z"/>
<path style="fill:#ec96a1; stroke:none;" d="M17 0L17 9L18 9L17 0z"/>
<path style="fill:#c0c2db; stroke:none;" d="M18 0C18.0504 3.07764 17.7035 5.58574 21 6L21 5L18 0z"/>
<path style="fill:#444a9d; stroke:none;" d="M19 0L19 6L28 1L19 0z"/>
<path style="fill:#c0c2db; stroke:none;" d="M28 0L29 1L28 0z"/>
<path style="fill:#f2e1e4; stroke:none;" d="M29 0L30 1L29 0z"/>
<path style="fill:#fe5b64; stroke:none;" d="M30 0L26 3L26 4L30 0z"/>
<path style="fill:#ec96a1; stroke:none;" d="M31 0L30 2L31 0z"/>
<path style="fill:#444a9d; stroke:none;" d="M24 7L24 8L32 8L32 13L24 13L24 14L32 21L19 15L19 21L13 21L13 15L0 21C0 25.8023 -2.03353 36.7597 1.6034 40.3966C4.33732 43.1305 10.4969 42 14 42L49 42C52.8538 42 60.4664 43.4373 62.9722 39.6821C65.5713 35.7872 64 27.5026 64 23C64 17.6386 66.0381 6.91235 62.9722 2.3179C60.8003 -0.936836 55.3408 0.000213623 52 0C39.969 -0.000774384 34.0195 0.145458 24 7z"/>
<path style="fill:#f2e1e4; stroke:none;" d="M62 0L64 2L64 0L62 0z"/>
<path style="fill:#ec96a1; stroke:none;" d="M1.66667 1.33333L2.33333 1.66667L1.66667 1.33333z"/>
<path style="fill:#f2e1e4; stroke:none;" d="M3 1L3 2L12 7L12 8L0 8L0 9C4.20543 9 12.9363 10.964 14 6L3 1M27 1L28 2L27 1z"/>
<path style="fill:#ec96a1; stroke:none;" d="M28 1L29 2L28 1z"/>
<path style="fill:#f2e1e4; stroke:none;" d="M31 1L32 2L31 1z"/>
<path style="fill:#444a9d; stroke:none;" d="M0 2L0 8L8 8L8 7L0 2z"/>
<path style="fill:#fe5b64; stroke:none;" d="M2 2L2 3L8 6L8 5L2 2z"/>
<path style="fill:#c0c2db; stroke:none;" d="M6 2L7 3L6 2M25 2L26 3L25 2z"/>
<path style="fill:#f2e1e4; stroke:none;" d="M26 2L27 3L26 2M19 6L18 6C19.0637 10.964 27.7946 9 32 9L32 8L23 8L23 7L31 3L19 6z"/>
<path style="fill:#c0c2db; stroke:none;" d="M2 3L3 4L2 3z"/>
<path style="fill:#ec96a1; stroke:none;" d="M3 3L4 4L3 3M5 3L6 4L5 3z"/>
<path style="fill:#c0c2db; stroke:none;" d="M8 3L9 4L8 3M23 3L22 5L23 3z"/>
<path style="fill:#f2e1e4; stroke:none;" d="M24 3L23 5L24 3z"/>
<path style="fill:#ec96a1; stroke:none;" d="M25 3L24 6L25 3M27 3L28 4L27 3z"/>
<path style="fill:#c0c2db; stroke:none;" d="M29 3L30 4L29 3z"/>
<path style="fill:#f2e1e4; stroke:none;" d="M4 4L5 5L4 4z"/>
<path style="fill:#c0c2db; stroke:none;" d="M9 4L10 5L9 4z"/>
<path style="fill:#fe5b64; stroke:none;" d="M24 4L25 5L24 4z"/>
<path style="fill:#c0c2db; stroke:none;" d="M5 5L6 6L5 5z"/>
<path style="fill:#ec96a1; stroke:none;" d="M6 5L7 6L6 5M8 5L10 8L8 5z"/>
<path style="fill:#f2e1e4; stroke:none;" d="M21 5L22 6L21 5z"/>
<path style="fill:#ec96a1; stroke:none;" d="M22.3333 5.66667L22.6667 6.33333L22.3333 5.66667z"/>
<path style="fill:#fe5b64; stroke:none;" d="M23 5L24 6L23 5z"/>
<path style="fill:#c0c2db; stroke:none;" d="M26 5L27 6L26 5z"/>
<path style="fill:#f2e1e4; stroke:none;" d="M7 6L8 7L7 6z"/>
<path style="fill:#fe5b64; stroke:none;" d="M9 6L10 7L9 6z"/>
<path style="fill:#ec96a1; stroke:none;" d="M20 6L19 8L20 6z"/>
<path style="fill:#fe5b64; stroke:none;" d="M21 6L22 7L21 6z"/>
<path style="fill:#c0c2db; stroke:none;" d="M8 7L9 8L8 7z"/>
<path style="fill:#fe5b64; stroke:none;" d="M10 7L11 8L10 7z"/>
<path style="fill:#ec96a1; stroke:none;" d="M11 7L12 8L11 7z"/>
<path style="fill:#fe5b64; stroke:none;" d="M20 7L21 8L20 7z"/>
<path style="fill:#c0c2db; stroke:none;" d="M23 7L24 8L23 7M47 8L48 12L50 12L51 8L47 8z"/>
<path style="fill:#f2e1e4; stroke:none;" d="M48 9L48 11L50 11L50 9L48 9M0 12L0 13L9 13L9 14L0 19L0 20L13 15C14.7533 10.3491 2.93112 12 0 12z"/>
<path style="fill:#ec96a1; stroke:none;" d="M14 12L14 21L15 21L14 12M17 12L17 21L18 21L17 12z"/>
<path style="fill:#f2e1e4; stroke:none;" d="M18 15L30 21L30 20L20 14L20 13L32 13C28.6219 11.0537 18.9832 10.4116 18 15z"/>
<path style="fill:#444a9d; stroke:none;" d="M0 13L0 19L8 14L0 13z"/>
<path style="fill:#c0c2db; stroke:none;" d="M8 13L9 14L8 13z"/>
<path style="fill:#ec96a1; stroke:none;" d="M11 13L11 15L13 13L11 13M20 13L22 15L22 13L20 13z"/>
<path style="fill:#c0c2db; stroke:none;" d="M23 13L24 14L23 13z"/>
<path style="fill:#ec96a1; stroke:none;" d="M9 14L8 17L9 14z"/>
<path style="fill:#fe5b64; stroke:none;" d="M10 14L11 15L10 14z"/>
<path style="fill:#c0c2db; stroke:none;" d="M12 14L13 15L12 14M19 14L20 15L19 14z"/>
<path style="fill:#fe5b64; stroke:none;" d="M22 14L22 15L29 19L29 18L22 14z"/>
<path style="fill:#ec96a1; stroke:none;" d="M23 14L24 15L23 14z"/>
<path style="fill:#f2e1e4; stroke:none;" d="M24 14L25 15L24 14z"/>
<path style="fill:#c0c2db; stroke:none;" d="M56 14L56 18L57 18L56 14z"/>
<path style="fill:#f2e1e4; stroke:none;" d="M57 14L57 17L59 16L59 15L57 14z"/>
<path style="fill:#c0c2db; stroke:none;" d="M58 14L59 15L58 14M5 15L6 16L5 15z"/>
<path style="fill:#fe5b64; stroke:none;" d="M8 15L9 16L8 15z"/>
<path style="fill:#f2e1e4; stroke:none;" d="M10 15L11 16L10 15z"/>
<path style="fill:#c0c2db; stroke:none;" d="M11 15L12 16L11 15M13 15L13 21L14 21L13 15M18 15L18 21L19 21L18 15M20 15L21 16L20 15z"/>
<path style="fill:#f2e1e4; stroke:none;" d="M25 15L26 16L25 15z"/>
<path style="fill:#c0c2db; stroke:none;" d="M26 15L27 16L26 15z"/>
<path style="fill:#ec96a1; stroke:none;" d="M6.33333 16.6667L6.66667 17.3333L6.33333 16.6667z"/>
<path style="fill:#fe5b64; stroke:none;" d="M7 16L8 17L7 16z"/>
<path style="fill:#c0c2db; stroke:none;" d="M9 16L10 17L9 16M22 16L23 17L22 16z"/>
<path style="fill:#ec96a1; stroke:none;" d="M24 16L25 17L24 16M26 16L27 17L26 16z"/>
<path style="fill:#f2e1e4; stroke:none;" d="M27 16L28 17L27 16z"/>
<path style="fill:#c0c2db; stroke:none;" d="M58 16L58 18L60 16L58 16M2 17L3 18L2 17z"/>
<path style="fill:#ec96a1; stroke:none;" d="M4 17L5 18L4 17z"/>
<path style="fill:#fe5b64; stroke:none;" d="M5 17L1 21L6 18L5 17z"/>
<path style="fill:#f2e1e4; stroke:none;" d="M7 17L8 18L7 17z"/>
<path style="fill:#c0c2db; stroke:none;" d="M8 17L9 18L8 17M23 17L24 18L23 17z"/>
<path style="fill:#f2e1e4; stroke:none;" d="M28 17L29 18L28 17z"/>
<path style="fill:#c0c2db; stroke:none;" d="M29 17L30 18L29 17z"/>
<path style="fill:#f2e1e4; stroke:none;" d="M5 18L4 20L5 18z"/>
<path style="fill:#c0c2db; stroke:none;" d="M6 18L7 19L6 18M25 18L26 19L25 18z"/>
<path style="fill:#ec96a1; stroke:none;" d="M27 18L28 19L27 18M29 18L32 21L32 20L29 18z"/>
<path style="fill:#f2e1e4; stroke:none;" d="M30 18L32 20L30 18z"/>
<path style="fill:#c0c2db; stroke:none;" d="M39 18L38 21L39 21L39 18z"/>
<path style="fill:#ec96a1; stroke:none;" d="M1 19L2 20L1 19M3 19L4 20L3 19z"/>
<path style="fill:#c0c2db; stroke:none;" d="M5 19L6 20L5 19M26 19L27 20L26 19z"/>
<path style="fill:#fe5b64; stroke:none;" d="M30 19L31 20L30 19z"/>
<path style="fill:#f2e1e4; stroke:none;" d="M39 19L39 22L41 22L41 19L39 19z"/>
<path style="fill:#c0c2db; stroke:none;" d="M41.3333 19.6667L41.6667 20.3333L41.3333 19.6667z"/>
<path style="fill:#ec96a1; stroke:none;" d="M0 20L1 21L0 20z"/>
<path style="fill:#f2e1e4; stroke:none;" d="M2 20L3 21L2 20z"/>
<path style="fill:#c0c2db; stroke:none;" d="M3 20L4 21L3 20M28 20L29 21L28 20M52 20L51 23L54 21L52 20z"/>
<path style="fill:#f2e1e4; stroke:none;" d="M52 21L53 22L52 21z"/>
<path style="fill:#c0c2db; stroke:none;" d="M16 27L14 30L20 30L20 29L16 27M12 29L13 30L12 29z"/>
<path style="fill:#f2e1e4; stroke:none;" d="M13 29L12 32L14 36L18 36L20 32L19 30L13 29z"/>
<path style="fill:#c0c2db; stroke:none;" d="M13 31L14 32L13 31M18 31L19 32L18 31M20 32L21 33L20 32M47.3333 32.6667L47.6667 33.3333L47.3333 32.6667z"/>
<path style="fill:#f2e1e4; stroke:none;" d="M48 32L48 35L50 35L50 32L48 32z"/>
<path style="fill:#c0c2db; stroke:none;" d="M50.3333 32.6667L50.6667 33.3333L50.3333 32.6667M12.6667 33.3333L13.3333 33.6667L12.6667 33.3333M18.6667 33.3333L19.3333 33.6667L18.6667 33.3333z"/>
<path style="fill:#f2e1e4; stroke:none;" d="M0 40L0 42L2 42L0 40M63 40L62 42L64 42L63 40z"/>
</svg>
