<svg width="28" height="28" viewBox="0 0 28 28" fill="none" xmlns="http://www.w3.org/2000/svg">
<path d="M25.7965 7.54585L17.0465 2.73335C16.9173 2.66227 16.7722 2.625 16.6247 2.625C16.4773 2.625 16.3322 2.66227 16.203 2.73335L7.45298 7.54585C7.31579 7.62139 7.20139 7.73236 7.12171 7.86718C7.04203 8.00201 7 8.15574 7 8.31235C7 8.46896 7.04203 8.6227 7.12171 8.75752C7.20139 8.89235 7.31579 9.00332 7.45298 9.07885L15.7497 13.642V23.0211L13.0932 21.5599L12.2497 23.092L16.203 25.2664C16.3321 25.3376 16.4772 25.375 16.6247 25.375C16.7722 25.375 16.9173 25.3376 17.0465 25.2664L25.7965 20.4539C25.9337 20.3784 26.0482 20.2674 26.1279 20.1326C26.2076 19.9977 26.2497 19.844 26.2497 19.6874V8.31235C26.2497 8.15572 26.2076 8.00196 26.1279 7.86713C26.0482 7.7323 25.9337 7.62135 25.7965 7.54585ZM16.6247 4.4991L23.5591 8.31235L16.6247 12.1256L9.69035 8.31235L16.6247 4.4991ZM24.4997 19.1702L17.4997 23.0202V13.6411L24.4997 9.7911V19.1702Z" fill="#086FB5"/>
<path d="M8.75 14H1.75V12.25H8.75V14ZM10.5 21H3.5V19.25H10.5V21ZM12.25 17.5H5.25V15.75H12.25V17.5Z" fill="#086FB5"/>
</svg>
