<?xml version="1.0" standalone="yes"?>
<svg xmlns="http://www.w3.org/2000/svg" width="64" height="42">
<path style="fill:#010101; stroke:none;" d="M0.666667 0.333332L1.33333 0.666668L0.666667 0.333332z"/>
<path style="fill:#a692bb; stroke:none;" d="M2 0L3 1L2 0z"/>
<path style="fill:#e5d0d9; stroke:none;" d="M3 0L1 3L4 2L4 5L5 5L4 3L5 3L8 8L0 8L0 9L14 9L14 0L13 0L13 6L3 0z"/>
<path style="fill:#42489c; stroke:none;" d="M4 0L4 1L13 6L13 0L4 0z"/>
<path style="fill:#fd5f68; stroke:none;" d="M14 0L14 9L0 9L0 12L14 12L14 21L18 21L18 12L32 12L32 9L18 9L18 0L14 0z"/>
<path style="fill:#e5d0d9; stroke:none;" d="M18 0L18 9L32 9L32 8L24 8L24 7L32 1L19 6L18 0z"/>
<path style="fill:#42489c; stroke:none;" d="M19 0L19 6L28 1L19 0z"/>
<path style="fill:#fd5f68; stroke:none;" d="M30 0L31 1L30 0z"/>
<path style="fill:#a692bb; stroke:none;" d="M31 0L32 1L31 0z"/>
<path style="fill:#42489c; stroke:none;" d="M32 0L26 6L26 7L32 7L32 14L26 14L26 15L32 21L19 15L19 21L13 21L13 15L0 21C0 25.8023 -2.03353 36.7597 1.6034 40.3966C4.33732 43.1305 10.4969 42 14 42L49 42C52.6941 42 59.5212 43.272 62.3966 40.3966C67.2209 35.5724 64.0135 16.576 64 10C63.9939 7.054 64.5158 2.91867 61.6821 1.02778C55.5459 -3.06686 39.2898 0 32 0z"/>
<path style="fill:#010101; stroke:none;" d="M62 0L64 2L64 0L62 0z"/>
<path style="fill:#a692bb; stroke:none;" d="M0.333333 1.66667L0.666667 2.33333L0.333333 1.66667z"/>
<path style="fill:#fd5f68; stroke:none;" d="M1 1L2 2L1 1z"/>
<path style="fill:#a692bb; stroke:none;" d="M5 1L6 2L5 1M26 1L27 2L26 1M28 1L29 2L28 1z"/>
<path style="fill:#fd5f68; stroke:none;" d="M29 1L30 2L29 1M2.66667 2.33333L3.33333 2.66667L2.66667 2.33333M27.6667 2.33333L28.3333 2.66667L27.6667 2.33333z"/>
<path style="fill:#a692bb; stroke:none;" d="M31 2L32 3L31 2z"/>
<path style="fill:#42489c; stroke:none;" d="M0 3L0 7L6 7L6 6L0 3z"/>
<path style="fill:#a692bb; stroke:none;" d="M2 3L3 4L2 3z"/>
<path style="fill:#fd5f68; stroke:none;" d="M4 3L7 5L4 3z"/>
<path style="fill:#a692bb; stroke:none;" d="M8 3L9 4L8 3M23 3L24 4L23 3z"/>
<path style="fill:#fd5f68; stroke:none;" d="M24 5L27 3L24 5z"/>
<path style="fill:#a692bb; stroke:none;" d="M3 4L4 5L3 4M28 4L29 5L28 4M5 5L6 6L5 5z"/>
<path style="fill:#fd5f68; stroke:none;" d="M7 5L7 6L11 8L7 5z"/>
<path style="fill:#a692bb; stroke:none;" d="M11 5L12 6L11 5M20 5L21 6L20 5z"/>
<path style="fill:#fd5f68; stroke:none;" d="M21 7L24 5L21 7z"/>
<path style="fill:#a692bb; stroke:none;" d="M0 7L0 8L8 8L0 7M24 7L24 8L32 8L24 7z"/>
<path style="fill:#fd5f68; stroke:none;" d="M20 7L21 8L20 7z"/>
<path style="fill:#e5d0d9; stroke:none;" d="M0 12L0 13L8 13L0 19C4.59449 21.7018 8.91992 17.2711 13 15L13 21L14 21L14 12L0 12M18 12L18 21L19 21L19 15L32 20L27 16L28 18L27 18L24 13L32 13L18 12z"/>
<path style="fill:#a692bb; stroke:none;" d="M47 12L45 14L46 18L50 18L51 14L49 12L47 12M0 13L0 14L5 16L8 13L0 13z"/>
<path style="fill:#fd5f68; stroke:none;" d="M11 13L2 19L2 20L11 13z"/>
<path style="fill:#a692bb; stroke:none;" d="M20 13L21 14L20 13z"/>
<path style="fill:#fd5f68; stroke:none;" d="M21 13L22 14L21 13z"/>
<path style="fill:#a692bb; stroke:none;" d="M24 13L24 14L32 14L24 13z"/>
<path style="fill:#42489c; stroke:none;" d="M0 14L0 18L6 15L0 14z"/>
<path style="fill:#fd5f68; stroke:none;" d="M22 14L25 16L25 15L22 14z"/>
<path style="fill:#a692bb; stroke:none;" d="M23 14L24 15L23 14z"/>
<path style="fill:#fd5f68; stroke:none;" d="M47 14L47 16L49 16L49 14L47 14z"/>
<path style="fill:#a692bb; stroke:none;" d="M11 15L12 16L11 15M20 15L21 16L20 15M26 15L27 16L26 15M3 16L4 17L3 16z"/>
<path style="fill:#fd5f68; stroke:none;" d="M25 16L28 18L25 16z"/>
<path style="fill:#a692bb; stroke:none;" d="M28 16L29 17L28 16M2 17L3 18L2 17M8 17L9 18L8 17M23 17L24 18L23 17M0 18L1 19L0 18z"/>
<path style="fill:#fd5f68; stroke:none;" d="M28 18L31 20L28 18z"/>
<path style="fill:#a692bb; stroke:none;" d="M31 18L32 19L31 18z"/>
<path style="fill:#e5d0d9; stroke:none;" d="M55 18L56 19L55 18z"/>
<path style="fill:#a692bb; stroke:none;" d="M56 18L57 22L55 19L54 19L53 19L58 23L56 18M5 19L6 20L5 19M26 19L27 20L26 19z"/>
<path style="fill:#fd5f68; stroke:none;" d="M55 19L54 20L57 22L55 19z"/>
<path style="fill:#a692bb; stroke:none;" d="M0 20L1 21L0 20z"/>
<path style="fill:#fd5f68; stroke:none;" d="M1 20L2 21L1 20M31 20L32 21L31 20z"/>
<path style="fill:#a692bb; stroke:none;" d="M39 20L38 25L43 21L42 21L41 21L39 24L39 20z"/>
<path style="fill:#e5d0d9; stroke:none;" d="M40 20L39 22L40 20z"/>
<path style="fill:#fd5f68; stroke:none;" d="M40 21L39 24L42 22L40 21z"/>
<path style="fill:#e5d0d9; stroke:none;" d="M54 22L55 23L54 22M41 24L42 25L41 24z"/>
<path style="fill:#a692bb; stroke:none;" d="M45 31C46.9753 34.4719 49.0247 34.4719 51 31L45 31z"/>
<path style="fill:#fd5f68; stroke:none;" d="M46 32L46 33L50 33L46 32z"/>
<path style="fill:#e5d0d9; stroke:none;" d="M46 34L47 35L46 34M49 34L50 35L49 34z"/>
<path style="fill:#010101; stroke:none;" d="M0 40L0 42L2 42L0 40M63 40L62 42L64 42L63 40z"/>
</svg>
