<svg width="36" height="36" viewBox="0 0 36 36" fill="none" xmlns="http://www.w3.org/2000/svg">
<g clip-path="url(#clip0_75_504)">
<path d="M34.7886 6.87019C34.1084 5.70124 32.8571 4.90723 31.4074 4.90723H17.6667V6.87019H34.7886ZM0 24.5368H35.3333V26.4998H0V24.5368ZM17.6667 16.685H35.3333V18.648H17.6667V16.685ZM17.6667 12.7591H35.3333V14.722H17.6667V12.7591ZM0 20.6109H35.3333V22.5739H0V20.6109ZM3.92593 30.4257H31.4074C32.8571 30.4257 34.1084 29.6317 34.7886 28.4628H0.544722C1.22489 29.6317 2.47628 30.4257 3.92593 30.4257ZM17.6667 8.83315H35.3333V10.7961H17.6667V8.83315Z" fill="#B22334"/>
<path d="M0.0667407 27.1662C0.0834259 27.2575 0.102074 27.3487 0.124648 27.438C0.150167 27.5372 0.181574 27.6324 0.214944 27.7286C0.302296 27.9828 0.408296 28.2281 0.541778 28.4578L0.544722 28.4627H34.7886L34.7906 28.4588C34.9223 28.2274 35.0314 27.9838 35.1164 27.7315C35.1811 27.5473 35.2309 27.3583 35.2656 27.1662C35.3059 26.9502 35.3333 26.7284 35.3333 26.4997H0C0 26.7284 0.0274815 26.9493 0.0667407 27.1662ZM0 22.5738H35.3333V24.5368H0V22.5738ZM0 18.6479V20.6109H35.3333V18.6479H17.6667H0ZM17.6667 14.722H35.3333V16.6849H17.6667V14.722ZM17.6667 10.796H35.3333V12.759H17.6667V10.796ZM0.544722 6.87012L0.541778 6.87502L0.544722 6.87012ZM0.12563 7.89478C0.150167 7.79467 0.184519 7.69947 0.215926 7.60328C0.181842 7.69917 0.151718 7.79642 0.12563 7.89478ZM17.6667 8.83308H35.3333C35.3333 8.6044 35.3059 8.38258 35.2656 8.16567C35.2312 7.97341 35.181 7.78432 35.1154 7.60034C35.0304 7.34693 34.9209 7.10238 34.7886 6.87012H17.6667V8.83308Z" fill="#EEEEEE"/>
<path d="M17.6667 4.90723H3.92593C2.88471 4.90723 1.88613 5.32085 1.14988 6.0571C0.413623 6.79336 0 7.79193 0 8.83315L0 18.648H17.6667V4.90723Z" fill="#3C3B6E"/>
<path d="M1.96396 7.58267L2.57051 8.02336L2.33888 8.73493L2.94446 8.29523L3.55101 8.73493L3.31938 8.02336L3.92594 7.58267H3.17609L2.94446 6.87012L2.71381 7.58267H1.96396ZM3.92692 9.54564L4.53348 9.98632L4.30185 10.6979L4.90742 10.2582L5.51398 10.6979L5.28235 9.98632L5.8889 9.54564H5.13905L4.90742 8.83308L4.67677 9.54564H3.92692ZM7.85285 9.54564L8.4594 9.98632L8.22777 10.6979L8.83335 10.2582L9.4399 10.6979L9.20827 9.98632L9.81483 9.54564H9.06498L8.83335 8.83308L8.6027 9.54564H7.85285ZM11.7788 9.54564L12.3853 9.98632L12.1537 10.6979L12.7593 10.2582L13.3658 10.6979L13.1342 9.98632L13.7408 9.54564H12.9909L12.7593 8.83308L12.5286 9.54564H11.7788ZM3.92692 13.4716L4.53348 13.9122L4.30185 14.6238L4.90742 14.1841L5.51398 14.6238L5.28235 13.9122L5.8889 13.4716H5.13905L4.90742 12.759L4.67677 13.4716H3.92692ZM7.85285 13.4716L8.4594 13.9122L8.22777 14.6238L8.83335 14.1841L9.4399 14.6238L9.20827 13.9122L9.81483 13.4716H9.06498L8.83335 12.759L8.6027 13.4716H7.85285ZM11.7788 13.4716L12.3853 13.9122L12.1537 14.6238L12.7593 14.1841L13.3658 14.6238L13.1342 13.9122L13.7408 13.4716H12.9909L12.7593 12.759L12.5286 13.4716H11.7788ZM5.88989 7.58267L6.49644 8.02336L6.26481 8.73493L6.87039 8.29523L7.47694 8.73493L7.24531 8.02336L7.85187 7.58267H7.10202L6.87039 6.87012L6.63974 7.58267H5.88989ZM9.81581 7.58267L10.4224 8.02336L10.1907 8.73493L10.7963 8.29523L11.4029 8.73493L11.1712 8.02336L11.7778 7.58267H11.0279L10.7963 6.87012L10.5657 7.58267H9.81581ZM13.7417 7.58267L14.3483 8.02336L14.1167 8.73493L14.7222 8.29523L15.3288 8.73493L15.0972 8.02336L15.7037 7.58267H14.9539L14.7222 6.87012L14.4916 7.58267H13.7417ZM1.96396 11.5086L2.57051 11.9493L2.33888 12.6609L2.94446 12.2212L3.55101 12.6609L3.31938 11.9493L3.92594 11.5086H3.17609L2.94446 10.796L2.71381 11.5086H1.96396ZM6.26481 12.6609L6.87039 12.2212L7.47694 12.6609L7.24531 11.9493L7.85187 11.5086H7.10202L6.87039 10.796L6.63974 11.5086H5.88989L6.49644 11.9493L6.26481 12.6609ZM9.81581 11.5086L10.4224 11.9493L10.1907 12.6609L10.7963 12.2212L11.4029 12.6609L11.1712 11.9493L11.7778 11.5086H11.0279L10.7963 10.796L10.5657 11.5086H9.81581ZM13.7417 11.5086L14.3483 11.9493L14.1167 12.6609L14.7222 12.2212L15.3288 12.6609L15.0972 11.9493L15.7037 11.5086H14.9539L14.7222 10.796L14.4916 11.5086H13.7417ZM1.96396 15.4345L2.57051 15.8752L2.33888 16.5868L2.94446 16.1471L3.55101 16.5868L3.31938 15.8752L3.92594 15.4345H3.17609L2.94446 14.722L2.71381 15.4345H1.96396ZM6.26481 16.5868L6.87039 16.1471L7.47694 16.5868L7.24531 15.8752L7.85187 15.4345H7.10202L6.87039 14.722L6.63974 15.4345H5.88989L6.49644 15.8752L6.26481 16.5868ZM9.81581 15.4345L10.4224 15.8752L10.1907 16.5868L10.7963 16.1471L11.4029 16.5868L11.1712 15.8752L11.7778 15.4345H11.0279L10.7963 14.722L10.5657 15.4345H9.81581ZM13.7417 15.4345L14.3483 15.8752L14.1167 16.5868L14.7222 16.1471L15.3288 16.5868L15.0972 15.8752L15.7037 15.4345H14.9539L14.7222 14.722L14.4916 15.4345H13.7417Z" fill="white"/>
</g>
<defs>
<clipPath id="clip0_75_504">
<rect width="35.3333" height="35.3333" fill="white"/>
</clipPath>
</defs>
</svg>
