<?xml version="1.0" standalone="yes"?>
<svg xmlns="http://www.w3.org/2000/svg" width="64" height="42">
<path style="fill:#424789; stroke:none;" d="M0 0L1 1L0 0z"/>
<path style="fill:#73af01; stroke:none;" d="M64 25L64 17C53.9089 17 37.188 20.201 28 15.8356C21.027 12.5227 11.5169 -1.50401 3.14815 0.361885C-0.0276227 1.06996 -0.0225238 4.33295 1.60802 6.56173C4.59447 10.6439 16.9444 15.6787 16.9444 21C16.9444 25.0546 -6.25731 37.2105 2.31867 41.2423C10.0149 44.8605 21.6291 29.1913 28 26.1644C37.188 21.799 53.9089 25 64 25z"/>
<path style="fill:#d8d04d; stroke:none;" d="M7 0L8 1L7 0z"/>
<path style="fill:#e4ddd8; stroke:none;" d="M8 0C22.9864 19.5372 41.9986 17 64 17L64 14L29 13.2616L8 0z"/>
<path style="fill:#ff4b55; stroke:none;" d="M11 0L11 1L28 13.1458L64 14L62.9722 1.74228L49 0L11 0z"/>
<path style="fill:#424789; stroke:none;" d="M62.6667 0.333332L63.3333 0.666668L62.6667 0.333332z"/>
<path style="fill:#d8d04d; stroke:none;" d="M12 1L13 2L12 1M12 4L13 5L12 4M0 6L12.9444 21L0 36C4.06103 33.9269 17.7932 26.0556 17.7932 21C17.7932 15.9444 4.06103 8.0731 0 6M16 7L17 8L16 7M17 8L18 9L17 8z"/>
<path style="fill:#424789; stroke:none;" d="M0 9L0 33L15 22L15 20L0 9z"/>
<path style="fill:#73af01; stroke:none;" d="M2 10L3 11L2 10z"/>
<path style="fill:#d8d04d; stroke:none;" d="M21 11L22 12L21 11M26 12L27 13L26 12z"/>
<path style="fill:#73af01; stroke:none;" d="M7 14L8 15L7 14z"/>
<path style="fill:#d8d04d; stroke:none;" d="M26 15L27 16L26 15z"/>
<path style="fill:#73af01; stroke:none;" d="M11 17L12 18L11 17M12 18L13 19L12 18M12 23L13 24L12 23M11 24L12 25L11 24z"/>
<path style="fill:#e4ddd8; stroke:none;" d="M8 42L29 28.7384L64 28L64 25C41.9986 25 22.9864 22.4628 8 42z"/>
<path style="fill:#d8d04d; stroke:none;" d="M26 26L27 27L26 26z"/>
<path style="fill:#73af01; stroke:none;" d="M7 27L8 28L7 27z"/>
<path style="fill:#424789; stroke:none;" d="M11 41L11 42L64 42L64 28L28 28.8573L11 41z"/>
<path style="fill:#73af01; stroke:none;" d="M26 29L27 30L26 29z"/>
<path style="fill:#d8d04d; stroke:none;" d="M21 30L22 31L21 30z"/>
<path style="fill:#73af01; stroke:none;" d="M2 31L3 32L2 31z"/>
<path style="fill:#d8d04d; stroke:none;" d="M17 33L18 34L17 33z"/>
<path style="fill:#73af01; stroke:none;" d="M21 33L22 34L21 33z"/>
<path style="fill:#d8d04d; stroke:none;" d="M16 34L17 35L16 34M12 37L13 38L12 37z"/>
<path style="fill:#73af01; stroke:none;" d="M16 37L17 38L16 37z"/>
<path style="fill:#d8d04d; stroke:none;" d="M12 40L13 41L12 40z"/>
<path style="fill:#424789; stroke:none;" d="M0.666667 41.3333L1.33333 41.6667L0.666667 41.3333z"/>
<path style="fill:#d8d04d; stroke:none;" d="M7 41L8 42L7 41z"/>
</svg>
